<?xml version="1.0" encoding="utf-8"?>
<!-- Generator: Adobe Illustrator 26.0.2, SVG Export Plug-In . SVG Version: 6.00 Build 0)  -->
<svg version="1.1" id="Layer_1" xmlns="http://www.w3.org/2000/svg" xmlns:xlink="http://www.w3.org/1999/xlink" x="0px" y="0px"
	 viewBox="0 0 1190.6 1190.6" style="enable-background:new 0 0 1190.6 1190.6;" xml:space="preserve">
<style type="text/css">
	.st0{fill:#D56F5B;}
	.st1{fill:#FFFFFF;}
</style>
<rect x="0" y="0" class="st0" width="1190.6" height="1190.6"/>
<path class="st1" d="M317.2,851.7c0,17.8,3.6,42.3,11.1,73.9c7.3,31.8,20.2,62.9,38.5,93.8c18.5,30.9,44.2,57.3,77.2,79.5
	c33.2,22.1,76.2,33.2,129.2,33.2c52.9,0,98.1-10,135.6-29.9c37.7-19.9,68.4-45.6,92.8-77.2c24.2-31.6,42.3-67.6,54.1-108.1
	c11.7-40.4,17.6-80.5,17.6-120.2c0-58.9-9.2-114.4-27.6-166.7c-18.3-52.2-46.6-100.4-84.8-144.4c-25-28-52-53.7-80.7-77.4
	c-28.7-23.5-57.7-47-87.1-70.5c-29.5-26.6-58.9-52.7-88.3-78.4c-29.5-25.7-52.5-56.4-80.5-85.8c-14.1-17.9-32.6-43.2-41.2-55.6
	c-9.3-13.4-25.3-38.9-35.2-51.8c-5.7-7.3-12.4-9.5-19.7-6.6c-7.4,2.9-11.1,8.8-11.1,17.6V851.7z"/>
</svg>
